<?xml version="1.0" standalone="no"?><!DOCTYPE svg PUBLIC "-//W3C//DTD SVG 1.1//EN" "http://www.w3.org/Graphics/SVG/1.1/DTD/svg11.dtd"><svg t="1752820140829" class="icon" viewBox="0 0 1024 1024" version="1.1" xmlns="http://www.w3.org/2000/svg" p-id="6460" xmlns:xlink="http://www.w3.org/1999/xlink" width="128" height="128"><path d="M512 748.032l228.032 120c2.624 0.64 4.992 0.32 7.04-1.024 1.92-1.28 2.624-3.328 1.92-6.016l-42.944-254.016 184-179.968c1.984-2.048 2.688-4.224 1.984-6.528-0.64-2.304-2.304-3.84-4.992-4.48l-254.976-36.992-114.048-231.04C516.736 145.28 514.688 144 512 144c-2.624 0-4.672 1.28-6.016 3.968l-113.984 231.04L136.96 416c-2.624 0.64-4.288 2.112-4.992 4.48-0.64 2.368 0 4.48 2.048 6.528l184 179.968-44.032 254.016c0 2.688 1.024 4.672 3.008 6.016a8.32 8.32 0 0 0 7.04 1.024L512 748.032z m-197.952 176a69.824 69.824 0 0 1-38.528 8.512 69.376 69.376 0 0 1-35.968-13.504 69.12 69.12 0 0 1-24-30.528 72.384 72.384 0 0 1-4.48-38.464l37.952-220.992-160-156.032a64.832 64.832 0 0 1-19.456-33.472 70.976 70.976 0 0 1 1.984-39.04 68.992 68.992 0 0 1 56.512-47.488l222.08-32 98.944-200.96a64.64 64.64 0 0 1 26.048-28.992c11.328-6.656 23.68-10.048 36.992-10.048 13.312 0 25.6 3.328 36.992 10.048 11.328 6.656 20.032 16.32 25.984 28.992l99.008 200.96 222.08 32c13.312 1.984 25.088 7.168 35.456 15.488 10.304 8.32 17.472 19.008 21.504 32 3.968 12.992 4.48 26.048 1.472 39.04a65.152 65.152 0 0 1-19.456 33.472l-160 156.032 38.016 220.992c1.984 13.312 0.512 26.112-4.48 38.464a69.504 69.504 0 0 1-24.064 30.528c-10.944 8-22.976 12.48-35.968 13.44a75.136 75.136 0 0 1-38.528-7.424l-198.016-105.024-198.08 104z" fill="#303133" p-id="6461"></path></svg>