<?xml version="1.0" standalone="no"?><!DOCTYPE svg PUBLIC "-//W3C//DTD SVG 1.1//EN" "http://www.w3.org/Graphics/SVG/1.1/DTD/svg11.dtd"><svg t="1753059131637" class="icon" viewBox="0 0 1024 1024" version="1.1" xmlns="http://www.w3.org/2000/svg" p-id="5521" xmlns:xlink="http://www.w3.org/1999/xlink" width="256" height="256"><path d="M403.269818 573.882182a34.909091 34.909091 0 0 1 45.195637 12.637091l1.62909 2.862545 1.44291 1.978182c2.373818 3.165091 5.538909 6.469818 9.495272 9.634909 12.101818 9.658182 28.462545 15.592727 50.967273 15.592727 25.809455 0 42.449455-5.864727 52.945455-14.848 2.117818-1.792 3.700364-3.421091 4.817454-4.724363l1.652364-2.094546 0.581818-0.907636a34.909091 34.909091 0 1 1 66.187636 22.155636c-3.793455 11.403636-12.427636 25.460364-27.880727 38.656-23.435636 20.014545-56.226909 31.581091-98.304 31.581091-38.609455 0-70.237091-11.473455-94.487273-30.813091-15.266909-12.171636-24.808727-24.855273-29.812363-34.862545a34.909091 34.909091 0 0 1 15.592727-46.848z" fill="#00D6A8" p-id="5522"></path><path d="M512 1012.363636a34.909091 34.909091 0 0 1 0-69.818181c139.264 0 262.190545-69.888 335.639273-176.500364 4.258909 1.256727 8.773818 1.954909 13.451636 1.954909h46.545455c9.146182 0 17.687273-2.653091 24.901818-7.214545C852.061091 910.545455 693.922909 1012.363636 512 1012.363636z m0-1000.727272c260.794182 0 472.715636 209.268364 477.021091 469.038545L989.090909 488.727273v46.545454c0 63.464727-12.381091 124.020364-34.885818 179.386182L954.181818 488.727273a46.545455 46.545455 0 0 0-37.422545-45.661091C894.068364 239.662545 721.501091 81.454545 512 81.454545c-209.501091 0-382.068364 158.184727-404.736 361.658182A46.522182 46.522182 0 0 0 69.818182 488.727273v81.454545a34.909091 34.909091 0 0 1-34.746182-31.557818L34.909091 535.272727v-46.545454C34.909091 225.233455 248.506182 11.636364 512 11.636364z" fill="#222222" p-id="5523"></path><path d="M162.909091 407.272727H116.363636A81.454545 81.454545 0 0 0 34.909091 488.727273v232.727272A81.454545 81.454545 0 0 0 116.363636 802.909091h46.545455a81.454545 81.454545 0 0 0 81.454545-81.454546V488.727273A81.454545 81.454545 0 0 0 162.909091 407.272727z m-46.545455 69.818182h46.545455a11.636364 11.636364 0 0 1 11.636364 11.636364v232.727272a11.636364 11.636364 0 0 1-11.636364 11.636364H116.363636a11.636364 11.636364 0 0 1-11.636363-11.636364V488.727273a11.636364 11.636364 0 0 1 11.636363-11.636364zM907.636364 407.272727h-46.545455a81.454545 81.454545 0 0 0-81.454545 81.454546v232.727272a81.454545 81.454545 0 0 0 81.454545 81.454546h46.545455a81.454545 81.454545 0 0 0 81.454545-81.454546V488.727273a81.454545 81.454545 0 0 0-81.454545-81.454546z m-46.545455 69.818182h46.545455a11.636364 11.636364 0 0 1 11.636363 11.636364v232.727272a11.636364 11.636364 0 0 1-11.636363 11.636364h-46.545455a11.636364 11.636364 0 0 1-11.636364-11.636364V488.727273a11.636364 11.636364 0 0 1 11.636364-11.636364z" fill="#222222" p-id="5524"></path></svg>