<?xml version="1.0" standalone="no"?><!DOCTYPE svg PUBLIC "-//W3C//DTD SVG 1.1//EN" "http://www.w3.org/Graphics/SVG/1.1/DTD/svg11.dtd"><svg t="1753059175163" class="icon" viewBox="0 0 1024 1024" version="1.1" xmlns="http://www.w3.org/2000/svg" p-id="6546" xmlns:xlink="http://www.w3.org/1999/xlink" width="256" height="256"><path d="M670.850468 785.85558a363.386854 363.386854 0 0 1-33.082907 152.023836 358.660725 358.660725 0 0 1-34.920847 61.439685 501.494864 501.494864 0 0 1-82.444705 6.826632 511.997374 511.997374 0 0 1-507.271245-446.356686 344.219773 344.219773 0 0 1 48.311547-52.512551 367.587859 367.587859 0 0 1 609.408157 276.741145z" fill="#00CC86" p-id="6547"></path><path d="M512.000001 1024a511.997374 511.997374 0 0 1 0-1023.994749 501.757427 501.757427 0 0 1 217.664524 48.57411 26.308788 26.308788 0 0 1-22.580397 47.523859A450.032564 450.032564 0 0 0 512.000001 52.517802a459.484823 459.484823 0 1 0 459.484823 459.484824 454.233568 454.233568 0 0 0-90.321588-274.115518 26.256276 26.256276 0 0 1 42.010041-31.50753 506.483556 506.483556 0 0 1 99.773847 305.623048A512.785063 512.785063 0 0 1 512.000001 1024z" fill="#492F5D" p-id="6548"></path><path d="M512.000001 669.540279a157.537654 157.537654 0 1 1 157.537653-157.537653 157.537654 157.537654 0 0 1-157.537653 157.537653z m0-262.562756a105.025102 105.025102 0 1 0 105.025102 105.025103 105.025102 105.025102 0 0 0-105.025102-105.025103z" fill="#492F5D" p-id="6549"></path></svg>