<?xml version="1.0" standalone="no"?><!DOCTYPE svg PUBLIC "-//W3C//DTD SVG 1.1//EN" "http://www.w3.org/Graphics/SVG/1.1/DTD/svg11.dtd"><svg t="1753060996716" class="icon" viewBox="0 0 1024 1024" version="1.1" xmlns="http://www.w3.org/2000/svg" p-id="8610" xmlns:xlink="http://www.w3.org/1999/xlink" width="256" height="256"><path d="M480.070358 712.58365c4.40056 4.912253 10.643214 7.470718 16.78353 7.470718 0.307016 0 0.614032 0 0.921047 0 0.307016 0 0.614032 0 0.921047 0 6.140316 0 12.280632-2.558465 16.78353-7.470718l171.621827-191.475515c80.642814-86.885469 54.648811-207.13332 53.523086-212.25025l-0.307016-1.125725c-29.1665-104.897062-98.142714-149.721367-150.847092-168.961023-27.222067-9.926844-52.704377-14.020388-72.148711-15.657805-1.023386-0.204677-2.149111-0.409354-3.172497-0.511693-0.71637-0.102339-6.652009-0.511693-16.271837-0.409354-9.619828-0.102339-15.555467 0.409354-16.271837 0.409354-1.125725 0.102339-2.149111 0.307016-3.172497 0.511693-19.444333 1.637418-45.028983 5.8333-72.148711 15.657805-52.704377 19.239656-121.680592 64.063962-150.847092 168.961023l-0.307016 1.125725c-1.125725 5.11693-27.222067 125.46712 53.523086 212.25025L480.070358 712.58365zM298.828703 319.194084c19.239656-68.464521 59.970418-114.721567 121.168899-137.440736 32.953028-12.280632 63.654607-14.327404 79.210074-14.532081 15.964821 0.307016 44.107935 2.763142 74.707176 13.918049 62.01719 22.61683 103.259644 68.976214 122.703978 138.054767 0.71637 3.684189 5.423946 28.552469 2.865481 60.686788-3.581851 44.824305-18.93264 82.075555-45.643014 110.730362l-0.102339 0.204677L497.774935 664.791525 341.810913 490.918249l-0.307016-0.307016c-26.710374-28.654807-42.061163-65.906056-45.643014-110.730362C293.404757 347.644213 298.112333 322.673596 298.828703 319.194084zM497.877274 462.058765c51.373976 0 93.128123-41.754148 93.128123-93.128123s-41.754148-93.128123-93.128123-93.128123-93.128123 41.754148-93.128123 93.128123S446.503298 462.058765 497.877274 462.058765zM497.877274 320.831501c26.505697 0 48.099141 21.593444 48.099141 48.099141s-21.593444 48.099141-48.099141 48.099141-48.099141-21.593444-48.099141-48.099141S471.371577 320.831501 497.877274 320.831501zM791.077354 706.03398l-0.511693-0.409354c-35.818509-33.362383-99.780132-50.657605-119.429143-56.286228-11.973616-3.377174-24.458925 3.479512-27.836098 15.453128-3.377174 11.973616 3.479512 24.458925 15.453128 27.836098 17.295223 5.014591 73.274435 20.365381 100.905856 45.745353 7.880072 7.880072 14.532081 19.649011 11.768939 28.45013-3.786528 12.280632-25.994004 26.505697-59.561063 32.85069l-0.102339 0c-0.102339 0-15.657805 2.967819-45.643014 6.037977-27.836098 2.865481-86.06676 6.242654-148.186288 6.754347-4.40056 0-9.722167 0-15.35079 0-24.04957 0-56.90026-0.102339-60.789127-0.204677-44.210274-0.71637-84.838697-2.967819-120.861883-6.652009-29.985209-3.070158-45.438337-6.037977-45.540676-6.037977l-0.102339 0c-33.56706-6.344993-55.774535-20.570058-59.561063-32.85069-2.660804-8.903458 3.991205-20.672397 11.768939-28.45013 27.529083-25.482311 83.610634-40.8331 100.905856-45.745353 11.973616-3.377174 18.830302-15.862483 15.453128-27.836098-3.377174-11.973616-15.862483-18.830302-27.836098-15.453128-19.546672 5.628623-83.508295 23.026184-119.429143 56.286228l-0.511693 0.409354c-17.090546 16.885868-32.236658 45.131321-23.537877 73.888467 9.210474 30.292225 40.935439 53.830102 94.151509 63.961623 1.637418 0.307016 18.21627 3.479512 49.634219 6.652009 37.251249 3.786528 79.210074 6.140316 124.648411 6.856686 3.888867 0.102339 30.087547 0.102339 61.403158 0.204677 3.581851 0 6.959025 0 10.029182 0 0.409354 0 0.921047 0 1.330402 0 0 0 0.102339 0 0.102339 0 1.330402 0 2.763142 0 4.093544 0 6.54967 0 11.257246 0 12.689986 0 0 0 0.102339 0 0.102339 0 1.125725 0 2.149111-0.102339 3.274835-0.204677 55.876874-0.921047 110.11633-4.195882 136.41735-6.856686 31.417949-3.172497 48.099141-6.344993 49.634219-6.652009 53.21607-10.029182 84.941035-33.669398 94.151509-63.961623C823.41635 751.165301 808.167899 722.919848 791.077354 706.03398z" fill="#272636" p-id="8611"></path></svg>